<svg xmlns="http://www.w3.org/2000/svg" viewBox="0 0 64 64">
  <defs>
    <mask id="hole">
      <rect width="64" height="64" fill="#fff"/>
      <circle cx="32" cy="32" r="8" fill="#000"/>
    </mask>
  </defs>
  <g fill="#eef3f8" mask="url(#hole)">
    <circle cx="32" cy="32" r="19"/>
    <rect x="27" y="2" width="10" height="15" rx="2" transform="rotate(0 32 32)"/>
    <rect x="27" y="2" width="10" height="15" rx="2" transform="rotate(45 32 32)"/>
    <rect x="27" y="2" width="10" height="15" rx="2" transform="rotate(90 32 32)"/>
    <rect x="27" y="2" width="10" height="15" rx="2" transform="rotate(135 32 32)"/>
    <rect x="27" y="2" width="10" height="15" rx="2" transform="rotate(180 32 32)"/>
    <rect x="27" y="2" width="10" height="15" rx="2" transform="rotate(225 32 32)"/>
    <rect x="27" y="2" width="10" height="15" rx="2" transform="rotate(270 32 32)"/>
    <rect x="27" y="2" width="10" height="15" rx="2" transform="rotate(315 32 32)"/>
  </g>
</svg>
